<svg xmlns="http://www.w3.org/2000/svg" width="275" height="340" fill="none"><path fill="#A29082" d="M255.39 98.256a10 10 0 0 0-.936-1.056c-.635-1.115-1.496-2.155-2.314-3.058a23.2 23.2 0 0 0-4.309-3.698 24.94 24.94 0 0 0-10.394-3.956 22.5 22.5 0 0 0-4.222-.184c2.833-1.975 5.832-3.858 9.235-4.63 1.773-.402 3.639-.536 5.439-.224.626.108 1.243.294 1.843.52.006.012.007.027.015.04 1.323 2.111 3.053 3.897 4.708 5.751.255.286.819.371 1.097.056a8.9 8.9 0 0 0 1.758-3.124c.366-.568.438-1.36.433-2.078a11 11 0 0 0-.137-3.116c-.487-2.599-1.861-4.832-3.712-6.639-.407-2.618-2.031-5.1-3.754-7.006-2.285-2.526-5.164-4.46-8.222-5.926-3.796-1.817-7.817-3.068-11.709-4.65a42 42 0 0 1-10.843-6.421c-6.52-5.326-11.531-12.199-16.926-18.59-3.678-4.357-7.664-8.682-12.315-12.05-1.283-1.19-2.919-2.052-4.446-2.838a38 38 0 0 0-4.394-1.92c-.01-.1-.036-.194-.114-.263-.614-.543-1.557-.764-2.334-.985a38 38 0 0 0-2.696-.634 48 48 0 0 0-5.283-.795c-1.56-.143-3.152-.28-4.706-.01-.551.097-1.225.276-1.821.574-.061-.099-.195-.159-.294-.06l-.006.005c-.089-.2-.284-.348-.533-.274-3.3.984-5.675 3.894-6.85 7.032-1.283 3.423-1.062 7.182.112 10.604.434 1.262.978 2.45 1.592 3.593-1.449 5.784-2.51 11.689-3.031 17.63-.45 5.125-.447 10.32.381 15.403-.264-.404-.515-.816-.796-1.21-1.957-2.75-4.406-5.16-7.283-6.94-5.428-3.359-12.309-4.348-18.099-1.302-1.506.792-2.906 1.83-4.062 3.08-.925 1-1.88 2.214-2.24 3.568l-.037.008c-.274.063-.245.364-.059.477-.013.087-.034.173-.042.262-.033.388.542.71.819.382.101-.12.191-.247.286-.373.032-.015.064-.024.095-.047.121-.092.259-.167.385-.256 1.949-.101 3.917-.066 5.859.015 2.344.1 4.677.412 6.97.904a40.8 40.8 0 0 1 13.038 5.286c.249.156.49.325.735.486-3.744-1.046-7.77-.765-11.408.689a17.6 17.6 0 0 0-6.405 4.412c-.502.547-.134 1.682.733 1.42 5.06-1.533 10.384-.134 14.902 2.337 5.578 3.051 9.982 7.736 14.791 11.806.258.218.522.424.782.637 1.514 2.109 2.714 4.417 3.456 6.984 1.223 4.235 1.153 8.688-.301 12.854-.444 1.27-.931 2.668-.541 4.019.008.026.022.05.031.076a270 270 0 0 1-4.134 10.156l-.206.472c-1.5 2.887-2.992 5.777-4.504 8.652-2.104 4.001-4.221 7.996-6.335 11.992q-.061.105-.124.207a44 44 0 0 0-1.525 2.126c.104-.449.214-.897.317-1.345a291 291 0 0 0 1.655-7.836 286 286 0 0 0 2.675-15.672c.422-2.949.813-5.904 1.205-8.857.02-.15-.208-.215-.231-.061-1.563 10.445-3.864 20.802-6.361 31.059a409 409 0 0 1-1.042 4.202c-.237.931-.572 1.918-.777 2.902-.906 1.777-1.714 3.643-2.306 5.562l-1.881 3.526-.162.22a45 45 0 0 0 1.253-7.78c.534-7.378-.902-14.883-4.074-21.566a40 40 0 0 0-2.998-5.276 39 39 0 0 0-1.813-2.495c-.62-.773-1.28-1.585-2.13-2.109-.015-.009-.029-.004-.044-.01-.042-.16-.071-.322-.123-.48-.195-.589-.996-.404-.933.208.005.052.003.105.008.157-.129.06-.217.203-.133.374.062.126.112.257.173.383.113 2.156-.138 4.271-.879 6.324-.858 2.373-2.186 4.552-3.64 6.602-3.256 4.589-7.4 8.712-9.214 14.164-1.607 4.826-.674 9.795 1.098 14.428 1.761 4.604 4.372 8.854 5.926 13.54.871 2.628 1.484 5.394 1.417 8.177-.032 1.313-.217 2.611-.619 3.863-.414 1.291-1.14 2.426-1.611 3.686-.171.459.204.767.597.775a4384 4384 0 0 1-10.632 19.364c.034-.199.046-.401.077-.601q.52-1.176 1.015-2.358c.942-2.242 1.82-4.513 2.562-6.831 1.346-4.203 2.246-8.589 2.25-13.016.005-4.091-.732-8.211-2.485-11.927-1.78-3.771-4.578-6.897-7.342-9.967-1.573-1.746-3.156-3.486-4.581-5.356-1.428-1.875-2.54-3.893-3.613-5.981-.199-.387-.768-.27-.871.082l-.012-.07c-.024-.161-.296-.14-.287.026q.014.191.026.383c-.347.3-.575.611-.801 1.082a15 15 0 0 0-.679 1.681 22 22 0 0 0-.837 3.472c-.4 2.445-.401 4.926-.16 7.388.293 2.972.966 5.878 1.854 8.722a.23.23 0 0 0-.103.32c.129.266.285.509.447.75a79 79 0 0 0 1.756 4.741c3.973 9.79 9.234 19.52 7.943 30.441a32 32 0 0 1-1.609 6.841l-.555 1.003a48 48 0 0 1-1.87 2.727c-.152.207-.095.419.046.562a4182 4182 0 0 1-21.25 37.713 3969 3969 0 0 1-12.04 20.954q-3.08 5.324-6.164 10.647c-2.01 3.471-4.182 6.867-5.741 10.567-.252.599.622.887.967.447 2.262-2.887 4.011-6.117 5.873-9.273q2.791-4.73 5.555-9.475 5.415-9.303 10.778-18.635a3673 3673 0 0 0 21.232-37.457q.398-.714.794-1.429c.471-.421.94-.842 1.399-1.293l3.293-3.235 6.386-6.278c1.275.028 2.583-.195 3.832-.402 1.495-.247 2.99-.494 4.48-.77l4.34-.801c1.43-.264 2.983-.385 4.303-.993.551-.253.244-1.034-.277-1.062-1.409-.076-2.873.39-4.256.663l-4.452.88c-1.442.285-2.876.597-4.311.909-.913.198-1.851.401-2.756.685 4.345-4.276 8.651-8.594 12.94-12.927 2.548-2.575 5.058-5.186 7.6-7.764.293-.298-.149-.752-.453-.465-9.206 8.713-18.376 17.451-27.442 26.311l-1.905 1.863c.152-.328.29-.662.432-.995a3669 3669 0 0 0 30.752-56.491 37 37 0 0 1 3.072-1.924 27 27 0 0 1 5.753-2.451c4.069-1.188 8.396-.997 12.454-2.21 8.42-2.519 12.144-11.064 15.084-18.571 1.991-5.08 4.068-10.362 8.137-14.169.211-.095.421-.196.632-.29.236-.104.052-.434-.179-.349l-.173.067c-.006-.567-.71-1.084-1.245-.586l-.119.118c-6.734-.228-13.628 1.742-19.51 4.929a41.4 41.4 0 0 0-7.191 4.956l.044-.085a221 221 0 0 1 4.751-8.47c1.37-2.317 2.805-4.593 4.234-6.875 1.423-2.271 3.035-4.47 4.281-6.841a.48.48 0 0 0 .03-.36l.079-.074a.7.7 0 0 0 .224-.643c.2-.118.389-.235.555-.331a20 20 0 0 0 2.643-1.814c1.315-1.077 2.561-2.343 3.353-3.854 3.141-2.763 7.348-3.995 11.558-4.332 4.653-.372 9.266.396 13.891.845.498.237.989.493 1.464.787 2.219 1.371 4.022 3.35 4.895 5.833.807 2.297.898 4.795.521 7.186-.249 1.583-.718 3.135-1.275 4.634-.295.792-.603 1.579-.908 2.366-.277.713-.608 1.431-.806 2.173-.011.016-.026.028-.036.043-.037.057-.038.13-.023.199-.084.546.577.816.924.377.103-.129.189-.278.285-.415.895-.36 1.762-1.021 2.509-1.492a38 38 0 0 0 3.3-2.323c1.991-1.583 3.787-3.459 5.03-5.693 2.209-3.972 2.585-8.902-.526-12.52a9.8 9.8 0 0 0-2.21-1.875c1.8-.519 3.547-1.225 5.24-2.027a49 49 0 0 0 4.077-1.437c3.408-1.392 6.842-3.198 9.624-5.67a27 27 0 0 1 1.994-.696c2.859-.873 5.888-1.3 8.868-.944 2.919.349 5.485 1.623 7.543 3.716.772.79 1.913-.28 1.258-1.147M119.108 186.71c.849 5.219.179 10.713-1.283 15.799-.599 2.083-1.324 4.128-2.116 6.144a42 42 0 0 0-.387-6.095 51 51 0 0 0-.357-2.173v-.007c.003-1.814-.066-3.634.071-5.445.134-1.76.49-3.534 1.326-5.104.677-1.271 1.637-2.253 2.746-3.119m-7.777-14.761c1.775 2.055 3.489 4.162 4.866 6.509 1.406 2.397 2.301 4.966 2.798 7.612-3.052.983-4.544 4.728-5.007 7.62-.083.518-.14 1.038-.184 1.558a83 83 0 0 0-1.086-3.735 8 8 0 0 0-.396-1.528 9 9 0 0 0-.444-1.008c-.895-2.595-1.87-5.168-2.847-7.739.017-.026.04-.048.051-.076.163-.38-.013-.809-.076-1.196a9 9 0 0 1-.112-1.203 9.7 9.7 0 0 1 .279-2.534c.401-1.611 1.209-2.947 2.158-4.28m-8.979-12.761c1.133 3.641 3.814 6.799 6.255 9.631.78.905 1.573 1.802 2.36 2.707-1.398 1.086-2.311 2.864-2.743 4.557-.185.718-.276 1.46-.307 2.202-.484-1.289-.961-2.58-1.418-3.876-.906-2.566-1.747-5.161-2.453-7.792-.649-2.417-1.288-4.874-1.702-7.349zm-1.2 15.997c-.53-2.793-.766-5.649-.522-8.486a22 22 0 0 1 .719-4.032c.199-.715.486-1.417.713-2.128.14 1.641.339 3.27.667 4.901.48 2.387 1.157 4.738 1.888 7.06 1.428 4.536 3.131 8.977 4.694 13.466-1.006-.729-2.142-1.244-3.287-1.745-.882-.386-1.84-.785-2.685-1.322-.912-2.508-1.683-5.064-2.187-7.714m10.786 29.574c-1.893-7.077-5.408-13.577-8.041-20.379.068.042.13.092.2.132 1.417.818 3.01 1.294 4.326 2.295.769.585 1.398 1.322 1.9 2.142 1.486 4.516 2.765 9.165 3.359 13.871-.027.778-.068 1.564.001 2.331.012.134.127.252.253.292.184 2.691.119 5.397-.292 8.103-.158.368-.302.74-.453 1.11.055-3.325-.382-6.643-1.253-9.897m50.958-42.481c-3.975 1.395-8.3 1.17-12.348 2.265a25 25 0 0 0-6.383 2.699c-.646.389-1.25.827-1.839 1.286q1.283-2.409 2.568-4.817c.179.045.395-.025.466-.237l.568-1.702.451-.847.255-.296c.229-.268.462-.532.693-.8.025-.008.048 0 .074-.018.713-.457 1.283-1.12 1.783-1.834 3.086 1.428 6.381 2.156 9.81 2.293a28.4 28.4 0 0 0 8.518-.958 8 8 0 0 1 .371-.091c-1.444 1.318-3.095 2.393-4.987 3.057m8.945-7.938a25 25 0 0 1-2.443 3.326c-.683-.06-1.521.382-2.128.549q-1.344.367-2.719.596a28.6 28.6 0 0 1-5.515.38c-3.196-.087-6.415-.763-9.452-1.812.075-.119.155-.237.227-.356.14-.153.275-.31.417-.463a109 109 0 0 1 7.282-7.139c2.724.196 5.451.179 8.182.172 2.878-.008 5.757-.039 8.634-.069-.736 1.658-1.538 3.279-2.485 4.816m3.04-6.094c-.025-.002-.042-.013-.069-.013-3.07.046-6.14.094-9.209.165-2.431.056-4.86.107-7.281.306a109.7 109.7 0 0 1 17.162-12.261 114 114 0 0 1 6.817-3.635c-3.464 4.545-5.187 10.134-7.42 15.438m-7.079-13.173a41.5 41.5 0 0 1 6.241-2.408c3.191-.932 6.471-1.406 9.778-1.647a28 28 0 0 0-.634.707c-6.643 2.731-12.951 6.249-18.814 10.4.105-.311.209-.623.325-.93a31 31 0 0 1 .995-2.324 34 34 0 0 1 1.15-2.196c.308-.539.644-1.065.959-1.602m-11.506 8.246c2.875-2.988 6.222-5.471 9.863-7.418-.491.827-.927 1.693-1.334 2.526q-.555 1.131-1.029 2.3-.244.595-.472 1.197c-.138.369-.307.701-.196 1.068a97 97 0 0 0-10.55 8.937c.638-1.331 1.251-2.676 1.768-4.059.274-.735.519-1.478.75-2.228l.011-.047c.396-.744.773-1.498 1.161-2.246zm90.683-51.54c-1.713-.595-3.543-.909-5.305-1.046-3.423-.266-6.897.162-10.23.945-6.784 1.591-13.09 4.701-19.819 6.48-1.86.492-3.742.863-5.65 1.1-.942.118-1.887.188-2.835.224-.839.032-1.69.117-2.532.13a38 38 0 0 0 1.939-.5c2.51-.723 5.123-1.632 7.371-3.013a37 37 0 0 0 4.122-.54 38.4 38.4 0 0 0 9.625-3.155c2.541-1.226 4.86-2.798 7.155-4.414a.83.83 0 0 0 .587.144c5.482-.68 10.995.683 15.572 3.644m-41.17 2.793c-1.138.279-2.29.501-3.454.635-1.35.154-2.718.2-4.075.156-.816-.027-1.635-.104-2.452-.165-.818-.129-1.643-.222-2.471-.323-1.541-.19-3.079-.4-4.612-.647-3.079-.495-6.144-1.155-9.116-2.11-3.047-.978-5.94-2.33-8.576-4.067 4.228-.545 8.324-2.492 11.7-5.006a29.8 29.8 0 0 0 9.193-11.323c4.234-9.175 2.253-19.947-3.969-27.723a29 29 0 0 0-1.759-1.982l1.841.944c6.6 3.39 13.403 6.937 18.499 12.46 4.665 5.056 7.195 11.569 7.281 18.443.081 6.583-1.996 13.203-6.164 18.34a27 27 0 0 1-1.648 1.831.72.72 0 0 0-.218.537M187.135 65.1a27.6 27.6 0 0 0-1.639-14.636c-1.983-4.917-5.471-9.007-9.107-12.786-.462-.48-.935-.952-1.403-1.428 1.053.427 2.093.882 3.109 1.386q1.301.767 2.626 1.494a27 27 0 0 1 5.12 4.372c3.158 3.463 5.486 7.706 6.587 12.27 2.285 9.463-1.344 19.302-8.646 25.592a28.1 28.1 0 0 1-6.763 4.315c-2.108.953-4.32 1.545-6.579 1.971-.142-.098-.294-.184-.434-.284-.309-.275-.607-.558-.911-.837 4.529-1.461 8.69-4.438 11.766-7.995a27.1 27.1 0 0 0 6.274-13.434m66.721 10.97a.73.73 0 0 0 .421 0c.023.036.05.068.072.104.542.87 1.018 1.797 1.326 2.775.301.957.483 1.953.506 2.957-.029 1.458-.403 2.893-1.211 4.11a74 74 0 0 0-2.41-2.575c.107.042.208.095.321.125.551.146.942-.39.742-.886-.578-1.438-2.642-2.186-4.036-2.583-1.61-.457-3.302-.565-4.964-.422-3.606.309-6.875 1.8-9.888 3.738-3.149 2.027-6.034 4.44-9.249 6.366a36.7 36.7 0 0 1-9.612 4.029c-1.615.42-3.264.714-4.92.932a.7.7 0 0 0-.195-.289c.067-.051.141-.09.205-.144.059-.05.08-.107.107-.163 5.573-.493 10.643-3.894 14.881-7.349 5.441-4.434 10.661-9.797 17.689-11.556a16.5 16.5 0 0 1 5.182-.473c.868.063 1.721.205 2.559.44.845.238 1.638.61 2.474.864m-31.981 3.423c1.236-3.512 1.62-7.285 1.045-10.966-.414-2.647-1.333-5.201-2.581-7.574 1.761 1.19 3.579 2.291 5.491 3.242 3.385 1.682 6.923 2.769 10.607 3.569 2.001.434 4.017.83 6.003 1.333-3.039.34-5.895 1.569-8.375 3.335-6.009 4.28-9.533 11.037-14.894 15.989-1.943 1.794-4.19 3.355-6.641 4.408a39 39 0 0 0 3.547-3.61c2.47-2.89 4.531-6.127 5.798-9.726m28.598-7.13c.634.415 1.248.854 1.815 1.348-.765-.213-1.56-.34-2.302-.43-1.54-.183-3.107-.11-4.637.134-3.232.515-6.306 1.79-9.068 3.525-6.171 3.875-10.949 9.57-17.225 13.296-.255.151-.519.285-.778.428 2.465-1.906 4.616-4.32 6.544-6.663 4.348-5.284 8.712-11.546 15.776-13.197 3.358-.784 6.784-.307 9.736 1.507a.5.5 0 0 0 .139.053m-24.502-17.11c3.608 1.808 7.451 3.051 11.202 4.517 3.673 1.435 7.299 3.146 10.241 5.828a19.5 19.5 0 0 1 2.234 2.408c-1.66-1.412-3.721-2.465-5.576-3.335-3.303-1.549-6.723-2.817-9.983-4.463a83 83 0 0 1-9.993-5.974c.616.355 1.239.7 1.875 1.019m4.521 4.681c3.61 2.019 7.365 3.67 11.141 5.344 1.783.791 3.551 1.64 5.184 2.713.585.384 1.12.815 1.641 1.262-5.445-2.466-11.729-2.853-17.37-4.82-4.974-1.733-9.417-4.574-13.534-7.834-3.082-4.05-7.004-7.326-11.281-10.08-3.526-3.302-7.089-6.562-10.994-9.426-5.981-4.385-13.088-8.104-20.642-8.42-3.945-3.331-7.292-7.352-9.283-12.129 5.499-.4 11.1.848 16.102 3.074 5.937 2.641 11.083 6.693 15.741 11.168 5.294 5.087 10.06 10.692 15.35 15.781 5.394 5.192 11.409 9.712 17.945 13.367m-31.656-17.6c-6.857-3.462-14.026-6.386-20.374-10.746a54 54 0 0 1-.926-.653c2.077.368 4.112.91 6.102 1.69 3.087 1.21 5.986 2.86 8.725 4.72 2.263 1.535 4.401 3.223 6.473 4.99m-25.81-29.192c1.53.117 3.046.382 4.535.757.442.123.884.248 1.322.387a35.3 35.3 0 0 1 6.112 2.588c1.209.655 2.345 1.438 3.519 2.146 4.203 2.952 7.857 6.711 11.202 10.578 3.681 4.254 7.101 8.749 10.834 12.959-8.403-8.593-16.104-18.142-27.079-23.507-3.084-1.508-6.326-2.66-9.716-3.236-2.91-.495-5.778-.432-8.638.127-.132-.34-.277-.675-.395-1.023-.098-.287-.179-.58-.27-.87 2.821-.713 5.639-1.131 8.574-.906m-9.792.53a.39.39 0 0 0 .106.562c.132.661.311 1.313.517 1.958l-.042.009c-.303.076-.198.504.104.466l.102-.008c.678 1.946 1.643 3.805 2.752 5.504 1.794 2.748 4.019 5.168 6.473 7.335-.028.458.245.94.845.985.12.009.237.028.356.039 6.352 5.222 13.908 8.563 21.233 12.176 3.083 1.52 6.147 3.125 9.054 4.953 1.124 1.051 2.245 2.107 3.37 3.157 2.676 2.499 5.41 4.988 8.298 7.27 3.671 5.044 5.787 11.213 4.57 17.495-1.438 7.422-6.492 13.297-12.198 17.94-.091.003-.18.015-.271.017-.034.001-.062.011-.091.02 3.847-4.501 6.135-10.235 6.733-16.114.667-6.558-.769-13.41-4.433-18.934-4.153-6.259-10.537-10.47-17.045-13.965-3.586-1.925-7.278-3.68-10.897-5.563-.281-.211-.556-.432-.845-.632-1.618-1.12-3.377-2.115-5.238-2.79a60 60 0 0 1-2.994-1.954c-3.015-2.118-5.793-4.59-8.03-7.53-2.01-2.643-3.826-6.109-3.413-9.544.136-.765.335-1.52.617-2.256.106-.237.216-.472.348-.697zm-6.587 38.19c.331-6.255 1.465-12.411 2.272-18.61 3.294 5.556 8.392 9.917 12.485 14.913 1.369 1.672 2.624 3.438 3.645 5.346 1.034 1.933 1.748 3.99 2.477 6.05.185.521 1.045.561 1.045-.093.001-3.679-2.021-7.12-4.088-10.03-2.375-3.346-5.31-6.221-8.124-9.189-4.89-5.156-10.365-11.87-9.144-19.514.577-3.61 2.661-6.719 5.866-8.408-.005.033-.015.063-.012.1l.002.016c-2.492 3.458-2.306 8.273-1.036 12.212 1.718 5.325 5.463 9.415 9.131 13.496 3.625 4.035 7.134 8.246 8.581 13.582 1.209 4.46 1.118 9.237-.125 13.679a26.4 26.4 0 0 1-3.085 6.976c-1.419 2.248-3.224 4.08-4.981 6.047-.245.274.02.765.39.564 1.991-1.078 3.659-2.893 4.975-4.711a26 26 0 0 0 3.241-6.07 27.8 27.8 0 0 0 1.506-13.672c-.729-5.08-3.075-9.49-6.312-13.418-3.642-4.418-8.209-8.267-10.931-13.376-.943-1.772-1.663-3.69-2.055-5.645q.088.225.184.448c1.403 3.243 3.819 6.079 6.391 8.465 5.001 5.61 10.895 10.508 14.434 17.25 4.584 8.737 3.867 19.738-1.973 27.714a26.9 26.9 0 0 1-6.027 5.943c-2.246 1.61-4.711 2.746-7.301 3.66-1.211-1.165-2.396-2.354-3.59-3.536a32 32 0 0 1-2.096-2.974 15 15 0 0 0-1.385-2.476c-3.8-7.526-4.803-16.377-4.36-24.74m-30.634 8.808c.098-.125.187-.256.293-.376a13.6 13.6 0 0 1 3.217-2.668 14.8 14.8 0 0 1 7.993-2.082c6.257.17 11.749 3.834 15.565 8.593 1.146 1.429 2.122 2.969 3.036 4.554.073.126.14.256.21.386-.566-.498-1.154-.974-1.726-1.454a70 70 0 0 0-3.495-2.78c-2.333-1.724-4.815-3.241-7.482-4.39-4.238-1.824-9.035-2.518-13.557-1.406a16.5 16.5 0 0 0-3.366 1.239c-.241.12-.466.25-.688.384m19.65 4.125c-4.5-1.905-9.336-3.008-14.222-3.187a28.4 28.4 0 0 0-5.011.278 16.8 16.8 0 0 1 3.476-1.3c2.035-.502 4.131-.59 6.214-.405 4.96.443 9.453 2.754 13.439 5.629a63 63 0 0 1 3.72 2.918c.642.54 1.264 1.118 1.902 1.673q-.011.012-.021.027a39 39 0 0 0-2.934-2.144 40.5 40.5 0 0 0-6.563-3.489m.009 5.847c4.429-.261 8.779 1.365 12.011 4.401a17 17 0 0 1 1.501 1.627c.131.279.274.552.411.828-4.65-3.91-10.197-7.015-16.466-6.477l-.109.014a16 16 0 0 1 2.652-.393m19.65 18.714a15.6 15.6 0 0 0-3.15-2.75c-3.695-3.317-7.328-6.743-11.653-9.219-3.972-2.273-8.587-3.801-13.165-3.478 1.69-.914 3.652-1.394 5.528-1.534 2.663-.2 5.304.24 7.785 1.213 4.483 1.758 8.088 4.927 11.504 8.275.18.261.356.526.544.781 2.357 3.191 5.315 5.776 8.652 7.794 1.613 1.22 3.335 2.28 5.25 3.045.245.098.442-.055.516-.26 3.171 1.197 6.477 2.011 9.809 2.612 1.774.32 3.557.59 5.344.825 1.822.24 3.64.522 5.48.402a.74.74 0 0 0 .38-.143c1.49.107 2.981.072 4.467-.07a26 26 0 0 0 2.625-.4 31 31 0 0 1-2.46.887 39.7 39.7 0 0 1-7.673 1.531c-3.44.34-6.929.211-10.344-.348a71 71 0 0 1-3.214-1.402c-.164-.077-.318.14-.156.245.4.26.81.505 1.222.746-.156-.034-.313-.062-.467-.098a25 25 0 0 1-1.74-1.049c-.263-.174-.51.225-.261.41l.254.19c-.199-.056-.401-.104-.6-.163-5.413-1.607-10.16-4.436-14.477-8.042m-23.689 54.648c.315-.439.657-.859.982-1.291a42.4 42.4 0 0 1-1.004 21.251c-1.271 4.098-3.153 7.998-5.319 11.692a.34.34 0 0 0-.035.219l-2.315 4.301c.246-.809.479-1.621.719-2.432.543-.767.763-1.699.767-2.648 1.246-4.466 2.312-8.982 3.072-13.558.721-4.344 1.123-8.763 1.105-13.175.032-.153.063-.306.107-.456.201-.702.466-1.39.789-2.045.321-.652.708-1.266 1.132-1.858m-7.569-19.393c-.007-.098-.028-.195-.039-.293.24.354.5.697.746 1.051.549.788 1.112 1.566 1.631 2.376a47 47 0 0 1 2.575 4.515c1.547 3.125 2.743 6.408 3.515 9.81-1.29.72-2.238 2.121-2.904 3.389-.019.036-.032.074-.05.109-.152-3.262-.549-6.509-1.243-9.709-.853-3.927-2.302-7.724-4.231-11.248m-.014 1.909c2.577 6.484 3.759 13.568 3.845 20.505a71 71 0 0 1-.286 7.113 6 6 0 0 0-.25-.474c-.964-1.644-2.588-2.679-4.283-3.455-1.914-.877-3.983-1.455-5.733-2.658-1.357-.932-2.518-2.327-2.628-3.999 1.404-1.899 2.916-3.73 4.273-5.595 1.676-2.303 3.173-4.781 4.139-7.472.455-1.265.798-2.61.923-3.965m-14.138 31.628c-.228-1.711-.233-3.442.112-5.173.642-3.223 2.253-6.018 4.137-8.658.125 1.054.571 2.061 1.227 2.907 1.182 1.523 3.033 2.351 4.769 3.065 1.911.786 4.007 1.501 5.449 3.057.541.585.963 1.293 1.169 2.065.209.784.11 1.562.104 2.36-.002.209.118.337.269.378-.609 4.431-1.555 8.818-2.673 13.152a11.2 11.2 0 0 0-1.885-2.76c-3.003-3.201-7.307-4.747-10.467-7.755a14.4 14.4 0 0 1-2.211-2.638m9.823 29.804-.706 1.306q.067-.408.113-.797c.3-2.485.002-5.038-.578-7.463-1.192-4.989-3.741-9.403-5.846-14.032-.952-2.093-1.828-4.301-2.382-6.565 3.546 4.345 10.575 6.236 12.974 11.609.257.576.422 1.144.53 1.712l-.009.033a241 241 0 0 1-2.269 7.711c-.66 2.135-1.37 4.289-1.827 6.486m59.338-83.29c-.112.014-.165.09-.196.179-4.645.577-9.524 2.314-12.383 6.061-.866.815-1.727 1.636-2.68 2.356a19.5 19.5 0 0 1-2.404 1.562c-.424.233-.859.443-1.297.65q-.105.051-.209.108c-.021-.019-.043-.045-.065-.066l.105-.219c.167-.362-.076-.67-.397-.79a1 1 0 0 0-.292-.16.7.7 0 0 0-.286-.612 3 3 0 0 1 .013-.446c.142-1.141.701-2.221 1.007-3.325.581-2.097.838-4.291.769-6.467a23.24 23.24 0 0 0-2.586-9.937c3.191 2.188 6.607 3.974 10.365 5.177 1.727.552 3.495.982 5.283 1.301.503.333 1.012.654 1.539.948a42 42 0 0 0 5.598 2.579c.664.251 1.337.48 2.012.699a67 67 0 0 0-3.896.402m22.037 20.331c.331-.998.626-2.009.824-3.041.493-2.561.554-5.272-.184-7.794-.841-2.875-2.637-5.119-4.93-6.744.127.006.253.005.38.01.042.114.142.206.312.214 2.08.098 4.027 1.345 5.266 2.984 1.259 1.665 1.72 3.787 1.616 5.845-.112 2.223-.859 4.365-1.915 6.309a27 27 0 0 1-1.369 2.217m4.226-6.211c.747-3.517.167-7.394-2.58-9.926a7.5 7.5 0 0 0-2.215-1.426c.202-.009.402-.032.604-.045a.4.4 0 0 0 .269.43c.929.318 1.876.49 2.724 1.011a7 7 0 0 1 2.152 2.102c1.212 1.835 1.488 4.085 1.058 6.215-.663 3.278-2.591 5.746-4.814 8.006.168-.262.341-.521.5-.788 1.032-1.731 1.883-3.599 2.302-5.579m2.276-9.841c1.322 1.36 2.163 3.166 2.294 5.064.314 4.562-2.494 8.536-5.838 11.34a33 33 0 0 1-2.126 1.616c2.393-2.051 4.519-4.47 5.742-7.358 1.434-3.381 1.336-7.412-1.178-10.261-.784-.888-1.936-1.789-3.17-2.178.325-.045.652-.08.974-.138.384.11.768.221 1.135.383a7 7 0 0 1 2.167 1.532m6.986-7.876c-1.726.945-3.49 1.847-5.312 2.602-1.001.258-2.011.49-3.029.683-7.77 1.467-15.824.86-23.335-1.584a51 51 0 0 1-5.741-2.275c.155.014.311.013.465.027 6.355 2.427 13.493 3.113 20.128 2.405 4.671-.499 9.171-1.784 13.462-3.68 4.756-2.102 9.418-4.5 14.676-4.993a29 29 0 0 1 4.075-.096c-5.608 1.1-10.445 4.203-15.389 6.911m21.01-7.735a28.7 28.7 0 0 0-7.014-.642c-2.343.07-4.672.442-6.925 1.085-2.536.725-4.944 1.834-7.324 2.954-2.36 1.112-4.713 2.249-7.179 3.112a43 43 0 0 1-6.658 1.739c-4.589.812-9.306.89-13.922.251a43.5 43.5 0 0 1-5.557-1.157c.969.005 1.939-.007 2.904-.072a42 42 0 0 0 6.082-.858c-.013.061.012.128.088.144.794.155 1.555.39 2.369.453.844.065 1.696.047 2.542.003 1.673-.087 3.331-.334 4.97-.674 3.324-.691 6.553-1.766 9.753-2.885 6.461-2.257 13.034-4.69 19.983-4.581 1.816.029 3.625.238 5.383.706.909.243 1.785.583 2.651.948a37 37 0 0 0-2.146-.526"/><path fill="#A29082" d="M206.095 266.231c.028-.206.035-.408.033-.609.144-.536.195-1.116.218-1.642.035-.82-.038-1.642-.202-2.445a10.8 10.8 0 0 0-1.993-4.372 9.7 9.7 0 0 0-1.242-1.339c1.47.253 2.964.585 4.244 1.381.667.415 1.281.94 1.74 1.583.159.223.293.468.409.719l-.008.017c-.235 1.051-.245 2.125-.299 3.197-.009.166.139.363.32.351a3.8 3.8 0 0 0 1.489-.427c.285-.063.548-.285.764-.507a4.8 4.8 0 0 0 .904-.999c.639-.947.895-2.05.875-3.168.67-.928.924-2.184.973-3.293.065-1.47-.232-2.939-.727-4.318-.615-1.711-1.471-3.316-2.187-4.984a18.2 18.2 0 0 1-1.383-5.267c-.387-3.616.16-7.25.443-10.853.192-2.456.28-4.995-.126-7.443-.033-.755-.275-1.517-.505-2.222q-.323-.986-.768-1.925a.16.16 0 0 0 .045-.115c-.024-.353-.246-.707-.418-1.011a16 16 0 0 0-.636-1.014c-.427-.64-.887-1.26-1.382-1.848-.437-.518-.884-1.043-1.444-1.432a3 3 0 0 0-.734-.377c.012-.048-.011-.108-.072-.108l-.003.001c.033-.089.018-.194-.081-.247-1.313-.7-2.926-.526-4.241.081-1.433.663-2.507 1.886-3.185 3.294-.25.519-.443 1.05-.602 1.587-2.201 1.338-4.32 2.831-6.284 4.499-1.695 1.438-3.271 3.036-4.56 4.85.041-.205.089-.408.122-.614.234-1.44.213-2.923-.131-4.345-.648-2.68-2.463-5.073-5.167-5.895a6.5 6.5 0 0 0-2.184-.287c-.588.026-1.25.109-1.772.416l-.014-.008c-.103-.064-.186.037-.163.128q-.047.032-.092.068c-.128.109-.049.383.136.366q.1-.011.201-.028.02.009.043.015c.065.008.131.027.196.038a27 27 0 0 1 1.796 1.784 18 18 0 0 1 1.868 2.394 17.6 17.6 0 0 1 2.402 5.584c.03.123.053.248.079.372-.834-1.458-2.156-2.594-3.716-3.252a7.6 7.6 0 0 0-3.308-.589c-.32.016-.552.476-.206.659 2.021 1.065 3.232 3.112 3.871 5.243.788 2.632.719 5.409.961 8.12q.021.217.047.433c-.175 1.108-.507 2.182-1.059 3.196-.91 1.673-2.283 3.02-3.995 3.859-.522.256-1.097.538-1.387 1.071l-.014.033q-2.157.978-4.354 1.866l-.206.083c-1.338.431-2.674.867-4.012 1.291-1.862.591-3.725 1.176-5.589 1.763l-.1.026q-.56.078-1.115.19l.506-.317c.973-.619 1.933-1.261 2.888-1.906a124 124 0 0 0 5.581-4.005c1.026-.778 2.043-1.567 3.06-2.356.052-.04.001-.129-.052-.089-3.653 2.736-7.504 5.22-11.386 7.615q-.796.491-1.597.975c-.355.214-.758.416-1.12.656-.818.271-1.633.599-2.397 1.009l-1.649.513-.117.018a18.7 18.7 0 0 0 8.044-9.876c.288-.824.521-1.674.681-2.532.081-.436.154-.876.2-1.317.044-.426.088-.876-.014-1.295-.002-.008-.008-.01-.011-.017.036-.062.076-.12.108-.185.119-.24-.183-.426-.35-.219l-.045.051c-.058-.021-.128-.004-.154.075-.019.057-.044.112-.064.169-.619.697-1.339 1.271-2.19 1.677-.984.469-2.054.735-3.123.924-2.394.422-4.92.431-7.133 1.556-1.959.995-3.182 2.805-4.044 4.767-.856 1.95-1.344 4.05-2.289 5.961-.531 1.073-1.183 2.109-2.048 2.944-.408.394-.86.736-1.363.999-.52.271-1.087.4-1.615.644-.192.089-.17.298-.052.42q-4.569 1.372-9.147 2.723c.071-.051.136-.11.206-.162q.517-.203 1.028-.416c.97-.403 1.93-.835 2.862-1.322 1.69-.883 3.298-1.958 4.644-3.317 1.243-1.256 2.268-2.746 2.857-4.42.598-1.7.687-3.51.77-5.293.047-1.014.089-2.03.219-3.037.13-1.01.401-1.968.705-2.936.057-.179-.154-.316-.292-.239l.017-.025c.042-.057-.048-.133-.096-.079q-.055.062-.108.126a1.3 1.3 0 0 0-.575.089 6 6 0 0 0-.719.31c-.46.232-.896.51-1.312.813-.865.63-1.619 1.392-2.292 2.222-.812 1.003-1.488 2.1-2.079 3.244a.1.1 0 0 0-.129.067 3 3 0 0 0-.09.366 34 34 0 0 0-.9 1.991c-1.751 4.215-3.089 8.803-6.802 11.768a14 14 0 0 1-2.572 1.614l-.475.139q-.699.16-1.402.271c-.11.017-.157.1-.157.186a1798 1798 0 0 1-28.045 7.924l-5.128 1.4c-1.672.456-3.37.841-4.973 1.505-.26.107-.078.461.161.431 1.572-.201 3.09-.663 4.621-1.067q2.295-.606 4.584-1.226 4.49-1.214 8.971-2.454a1585 1585 0 0 0 17.9-5.066l.678-.198c.272.014.544.027.822.028l1.995.005 3.869.01c.383.395.853.724 1.3 1.04.534.378 1.069.756 1.61 1.124l1.578 1.071c.519.353 1.034.787 1.624 1.001.246.09.389-.243.237-.41-.41-.451-1.001-.753-1.51-1.089l-1.635-1.081c-.53-.35-1.065-.69-1.601-1.03-.341-.216-.691-.438-1.055-.626 2.634.005 5.268-.015 7.902-.044 1.565-.018 3.129-.058 4.694-.079.18-.002.182-.276.002-.28-5.475-.117-10.947-.216-16.424-.246l-1.151-.006c.146-.054.29-.115.435-.174 8.892-2.596 17.76-5.274 26.605-8.025.514.086 1.023.205 1.528.341.869.234 1.721.566 2.512.994 1.612.87 2.884 2.243 4.499 3.102 3.353 1.783 7.092.287 10.275-1.127 2.155-.957 4.397-1.95 6.804-1.885l.282.103c.104.04.148-.118.051-.161l-.074-.033c.171-.175.112-.548-.205-.557h-.072c-2-2.115-4.717-3.603-7.493-4.409a18 18 0 0 0-3.715-.661l.039-.013a96 96 0 0 1 4.033-1.16c1.124-.296 2.256-.56 3.388-.828 1.128-.265 2.291-.452 3.394-.802a.2.2 0 0 0 .118-.102l.047.002a.31.31 0 0 0 .264-.13c.097.024.191.046.271.067.446.116.904.202 1.363.245.731.068 1.499.057 2.201-.167 1.804.105 3.471 1.003 4.868 2.178 1.543 1.299 2.727 2.936 4.012 4.478.081.224.155.452.212.686.265 1.095.218 2.251-.267 3.279-.45.951-1.18 1.747-2.022 2.368a10.5 10.5 0 0 1-1.799 1.036q-.498.23-.998.452c-.301.135-.621.255-.907.423l-.024.002c-.029.007-.051.029-.068.055-.191.142-.07.425.17.396.071-.009.142-.028.213-.041.385.161.852.221 1.225.303.567.125 1.141.226 1.719.288 1.093.118 2.214.087 3.275-.222 1.885-.55 3.498-1.951 3.64-4.008a4.2 4.2 0 0 0-.11-1.247c.711.387 1.462.7 2.226.968.552.287 1.113.558 1.689.796 1.47.607 3.074 1.095 4.68 1.18q.419.179.824.391c1.144.6 2.204 1.389 3.012 2.403a5.38 5.38 0 0 1 1.19 3.433c-.002.477.674.494.735.029m-68.745-14.195c-1.323 1.862-3.198 3.347-5.191 4.466-.817.459-1.661.867-2.516 1.246a18 18 0 0 0 1.731-1.991c.192-.254.371-.515.551-.776l.002-.002c.551-.557 1.083-1.137 1.675-1.652.575-.501 1.223-.938 1.957-1.166.594-.186 1.188-.196 1.791-.125m2.092-6.898c-.078 1.17-.191 2.338-.481 3.478a10.2 10.2 0 0 1-1.451 3.189c-1.237-.625-2.832.073-3.853.821a9 9 0 0 0-.529.424q.416-.73.8-1.478c.138-.189.253-.395.342-.59a4 4 0 0 0 .17-.445c.513-1.069.994-2.156 1.474-3.243q.02-.002.04-.008c.165-.067.241-.252.339-.39q.151-.214.331-.404c.253-.268.541-.502.855-.694.613-.374 1.267-.539 1.963-.66m1.115-6.649c-.757 1.463-.892 3.248-1.002 4.86-.035.514-.063 1.031-.096 1.548-.76-.09-1.58.179-2.227.568a4.6 4.6 0 0 0-.763.583q.363-.815.741-1.621a46 46 0 0 1 1.612-3.14c.534-.94 1.084-1.889 1.708-2.776zm-5.226 4.553c.685-1.02 1.48-1.969 2.416-2.767a9.6 9.6 0 0 1 1.445-1.021c.279-.159.58-.288.866-.438a19 19 0 0 0-1.283 1.709c-.578.879-1.084 1.808-1.564 2.743-.938 1.828-1.763 3.71-2.646 5.564-.088-.529-.28-1.032-.48-1.534-.154-.387-.327-.8-.424-1.221.481-1.049 1.02-2.068 1.67-3.035m-5.665 12.364c1.567-2.75 2.46-5.815 3.717-8.705.008.033.012.068.021.101.187.682.532 1.312.633 2.019.058.413.028.831-.067 1.235-.914 1.84-1.933 3.657-3.179 5.284-.245.231-.496.46-.708.717-.037.044-.037.116-.011.166a16 16 0 0 1-2.55 2.402c-.16.065-.317.136-.476.204a15.6 15.6 0 0 0 2.62-3.423m28.561 2.417c-1.645-.778-2.906-2.161-4.483-3.054a10.7 10.7 0 0 0-2.781-1.108 8 8 0 0 0-.956-.164l2.252-.7c.042.068.129.112.215.068l.692-.35.396-.123.168-.014.455-.035c.011.005.015.014.029.017.358.075.734.045 1.105-.023.515 1.376 1.307 2.6 2.319 3.684a12.3 12.3 0 0 0 2.909 2.292q.065.037.141.084c-.844-.033-1.678-.204-2.461-.574m5.16.276c-.577.141-1.168.237-1.761.281-.192-.226-.584-.345-.821-.478a12.2 12.2 0 0 1-2.827-2.2c-.956-.997-1.74-2.182-2.355-3.427l.178-.041.269-.015a47 47 0 0 1 4.406.017c.777.887 1.621 1.71 2.462 2.537.887.872 1.781 1.736 2.675 2.6-.73.287-1.468.541-2.226.726m2.785-.95c-.007-.008-.009-.017-.018-.025a467 467 0 0 0-2.88-2.745c-.765-.721-1.526-1.443-2.331-2.117a47.5 47.5 0 0 1 12.197 2.395c-2.445.346-4.672 1.54-6.968 2.492m1.824-6.198c.91.315 1.799.696 2.649 1.155 1.264.682 2.416 1.533 3.505 2.463a14 14 0 0 0-.409.024 41.3 41.3 0 0 0-8.94-2.516q.189-.097.382-.187.497-.228 1.011-.412.505-.182 1.021-.326c.258-.072.521-.132.781-.201m-6.04-.96a17.1 17.1 0 0 1 5.283.715c-.402.105-.799.24-1.177.372q-.514.179-1.014.394-.255.109-.509.225c-.154.071-.307.122-.384.268a42 42 0 0 0-5.957-.456 22 22 0 0 0 1.776-.711q.461-.216.907-.457l.018-.011c.348-.108.692-.225 1.039-.338zm43.521 11.695c-.346-.703-.813-1.355-1.313-1.932-.971-1.121-2.169-2.045-3.431-2.816-2.568-1.571-5.451-2.53-8.059-4.026a18.5 18.5 0 0 1-2.071-1.378 14 14 0 0 1-.939-.792c-.268-.245-.555-.477-.817-.729q.368.228.747.435c.991.54 2.07 1.054 3.18 1.312a16.6 16.6 0 0 0 5.348 3.039c1.153.395 2.343.616 3.539.816a.36.36 0 0 0 .137.223c1.891 1.455 3.171 3.548 3.679 5.848m-13.502-11.643a12 12 0 0 1-1.254-.853 12 12 0 0 1-1.3-1.19c-.243-.255-.471-.528-.703-.795-.213-.288-.438-.567-.662-.85a53 53 0 0 1-1.221-1.598c-.796-1.088-1.537-2.221-2.161-3.417a15 15 0 0 1-1.401-3.854c1.465 1.116 3.315 1.761 5.116 2.014 2.093.294 4.285.054 6.264-.689 4.087-1.534 6.749-5.446 7.198-9.726.04-.379.056-.761.061-1.143l.279.849c1 3.046 2.013 6.202 1.902 9.447-.101 2.97-1.301 5.74-3.362 7.879-1.974 2.048-4.622 3.452-7.463 3.765a11 11 0 0 1-1.063.063.3.3 0 0 0-.23.098m3.21-14.728a11.93 11.93 0 0 0 3.94-4.996c.884-2.113 1.053-4.43 1.083-6.695.004-.288.002-.577.003-.865.194.451.375.907.534 1.37q.167.63.354 1.257c.203.952.285 1.925.246 2.898-.081 2.023-.653 4.034-1.701 5.771-2.171 3.602-6.274 5.525-10.428 5.241a12.2 12.2 0 0 1-3.389-.728c-.937-.347-1.797-.836-2.621-1.392-.014-.073-.034-.145-.047-.219l-.026-.534c1.836.926 4.019 1.275 6.044 1.116a11.7 11.7 0 0 0 6.008-2.224m17.176 23.631a.3.3 0 0 0 .129.128l-.009.054a5.3 5.3 0 0 1-.436 1.255 4.6 4.6 0 0 1-.742 1.063c-.452.439-1.002.766-1.62.895.023-.508.042-1.016.041-1.523.02.046.035.093.061.136.125.212.407.167.497-.047.259-.617-.149-1.474-.457-2.019a6 6 0 0 0-1.397-1.637c-1.202-1-2.659-1.535-4.174-1.854-1.583-.333-3.203-.467-4.776-.852a15.9 15.9 0 0 1-4.177-1.68 17 17 0 0 1-1.795-1.208.3.3 0 0 0 .027-.148c.037.005.071.016.107.018.033.003.057-.008.083-.017 1.862 1.54 4.453 2.035 6.805 2.26 3.019.289 6.251.226 8.945 1.819.648.383 1.24.862 1.737 1.428q.372.424.652.912c.188.33.319.685.499 1.017m-10.869-8.659a9.76 9.76 0 0 0 3.651-3.053c.676-.939 1.169-2.003 1.506-3.111.18.9.405 1.791.704 2.663.529 1.545 1.287 2.953 2.176 4.318.483.741.982 1.475 1.44 2.233-1.037-.819-2.288-1.308-3.587-1.519-3.146-.509-6.281.498-9.432.392-1.142-.038-2.307-.241-3.38-.661.729.032 1.46.029 2.187-.033 1.636-.138 3.252-.507 4.735-1.229m10.954 6.493c.069.32.125.641.149.965a7 7 0 0 0-.577-.831 7.3 7.3 0 0 0-1.466-1.367c-1.15-.823-2.482-1.365-3.857-1.67-3.074-.683-6.271-.383-9.332-1.144-.124-.031-.246-.07-.369-.104 1.337.163 2.731.073 4.035-.061 2.941-.304 6.183-.903 8.856.734 1.27.778 2.178 1.966 2.534 3.419a.2.2 0 0 0 .027.059m-2.335-12.699c.56 1.651 1.364 3.2 2.071 4.79.694 1.556 1.289 3.183 1.378 4.901q.038.71-.044 1.418c-.082-.938-.395-1.888-.702-2.718-.544-1.479-1.21-2.907-1.712-4.403a36 36 0 0 1-1.258-4.871q.122.445.267.883m-.032 2.812c.497 1.716 1.149 3.364 1.802 5.025.307.784.593 1.582.769 2.408.063.295.097.59.121.886-.925-2.411-2.738-4.438-3.875-6.756-1.002-2.043-1.505-4.265-1.781-6.517.283-2.18.072-4.379-.406-6.523-.081-2.086-.186-4.17-.517-6.236-.507-3.164-1.562-6.465-3.787-8.856-.202-2.222-.009-4.474.829-6.547 1.812 1.547 3.154 3.632 4.016 5.835 1.022 2.614 1.374 5.422 1.447 8.212.082 3.171-.155 6.341-.074 9.511a37.8 37.8 0 0 0 1.456 9.558m-4.385-15.022c-1.056-3.146-2.372-6.222-2.999-9.489q-.046-.241-.086-.482c.526.743.987 1.528 1.362 2.372.582 1.309.971 2.697 1.248 4.1a32 32 0 0 1 .475 3.499m.931-16.81c.435.501.821 1.043 1.164 1.61q.15.257.289.521a15.3 15.3 0 0 1 1.093 2.651c.173.568.284 1.154.43 1.728.395 2.183.377 4.448.231 6.653-.161 2.425-.474 4.845-.605 7.272.026-5.192.559-10.465-1.186-15.447-.49-1.4-1.136-2.738-2.003-3.945a10.3 10.3 0 0 0-2.694-2.584c.063-.145.12-.291.19-.434.057-.118.121-.233.181-.349 1.083.637 2.077 1.364 2.91 2.324m-3.171-2.81a.17.17 0 0 0-.138.205 8 8 0 0 0-.435.759l-.016-.01c-.116-.069-.213.095-.109.175l.034.028a11 11 0 0 0-.826 2.528c-.283 1.389-.334 2.808-.237 4.219-.148.133-.21.364-.04.56l.098.12c.366 3.534 1.674 6.855 2.828 10.189.486 1.404.941 2.827 1.279 4.272l.077 1.993c.064 1.581.148 3.176.343 4.754-.403 2.666-1.626 5.204-3.907 6.766-2.696 1.844-6.033 2.115-9.197 1.809q-.045-.038-.088-.077-.017-.013-.034-.021c2.549-.215 4.993-1.283 6.962-2.908 2.196-1.814 3.836-4.356 4.386-7.166.625-3.185-.059-6.417-.998-9.468-.517-1.68-1.119-3.341-1.66-5.018-.022-.151-.04-.302-.067-.451-.158-.836-.396-1.676-.764-2.448-.121-.5-.235-1.002-.326-1.51-.284-1.566-.387-3.169-.182-4.752.185-1.423.679-3.04 1.849-3.97q.41-.293.875-.506.155-.064.318-.109zm-13.62 9.737c2.001-1.821 4.219-3.369 6.349-5.029-.675 2.708-.432 5.596-.691 8.375-.087.929-.237 1.853-.503 2.749-.269.908-.675 1.758-1.076 2.612-.101.216.151.49.35.288 1.117-1.13 1.541-2.801 1.789-4.323.286-1.75.257-3.525.293-5.291.063-3.07.419-6.796 3.115-8.775 1.274-.934 2.858-1.257 4.356-.803-.012.009-.024.015-.034.028l-.004.005c-1.816.306-3.221 1.842-4.027 3.439-1.089 2.158-1.18 4.552-1.292 6.92-.11 2.341-.311 4.701-1.486 6.78-.983 1.738-2.461 3.179-4.192 4.166-.958.547-1.992.958-3.067 1.208-1.118.26-2.229.275-3.367.346-.158.01-.226.241-.051.292.939.273 2.003.222 2.96.062a11.2 11.2 0 0 0 2.839-.881 12 12 0 0 0 4.614-3.745c1.318-1.782 1.937-3.85 2.134-6.04.223-2.464-.012-5.034.702-7.431a9 9 0 0 1 1.083-2.359 5 5 0 0 0-.08.194c-.553 1.423-.672 3.028-.606 4.542-.166 3.243.158 6.538-.801 9.685-1.244 4.077-4.805 7.24-9.022 7.918a11.6 11.6 0 0 1-3.657-.003c-1.179-.187-2.282-.586-3.355-1.092-.019-.726-.022-1.451-.03-2.177.06-.524.142-1.042.259-1.55.149-.382.252-.779.326-1.182 1.117-3.467 3.497-6.492 6.172-8.928m-12.09-6.594c.068-.008.135-.022.204-.027a5.9 5.9 0 0 1 1.799.157 6.4 6.4 0 0 1 3.089 1.787c1.872 1.953 2.447 4.746 2.175 7.368-.082.787-.25 1.556-.45 2.321q-.025.09-.053.183c-.022-.325-.059-.65-.088-.971a30 30 0 0 0-.231-1.916c-.193-1.238-.495-2.458-.966-3.621-.749-1.848-2.013-3.518-3.74-4.549a7 7 0 0 0-1.411-.641 4 4 0 0 0-.328-.091m4.787 7.235a17.5 17.5 0 0 0-3.403-5.299 12.4 12.4 0 0 0-1.625-1.436c.514.167 1.015.39 1.463.657.778.463 1.449 1.072 2.033 1.762 1.39 1.642 2.069 3.716 2.421 5.81.113.672.195 1.349.257 2.027.034.361.05.727.077 1.092q-.008 0-.015.002a17 17 0 0 0-.25-1.551 17.5 17.5 0 0 0-.958-3.064m-1.773 1.799a7 7 0 0 1 2.323 5.956c-.045.125-.083.253-.125.379-.242-2.613-1.004-5.252-3.094-6.99l-.038-.029q.495.301.934.684m.357 11.719a6.8 6.8 0 0 0-.133-1.802c-.128-2.141-.204-4.298-.782-6.372-.531-1.905-1.485-3.775-2.99-5.066.797.232 1.546.68 2.165 1.207a7.6 7.6 0 0 1 2.024 2.737c.844 1.901.99 3.97 1.023 6.036q-.038.202-.07.405c-.244 1.697-.12 3.389.293 5.023.125.864.332 1.713.689 2.53.045.104.152.117.237.077.612 1.33 1.38 2.584 2.222 3.781q.673.955 1.392 1.876c.487.627.96 1.266 1.562 1.788a.3.3 0 0 0 .16.071 11.4 11.4 0 0 0 2.323 2.009c-.347-.145-.69-.298-1.026-.474a17 17 0 0 1-2.823-1.86 17.2 17.2 0 0 1-3.073-3.248 31 31 0 0 1-.563-1.406c-.027-.074-.14-.054-.122.027q.068.303.149.601l-.114-.172a11 11 0 0 1-.216-.851c-.028-.133-.225-.085-.205.047l.021.136q-.069-.116-.135-.233c-1.176-2.137-1.776-4.448-2.008-6.867m-23.874 9.603c.23-.039.463-.065.694-.099a18.3 18.3 0 0 1-6.762 6.227c-1.635.873-3.397 1.501-5.185 1.978a.15.15 0 0 0-.077.057l-2.017.619q.48-.263.959-.529c.4-.071.75-.291 1.04-.581a56 56 0 0 0 5.061-3.235 34 34 0 0 0 4.34-3.713 2 2 0 0 1 .171-.108 5.3 5.3 0 0 1 1.776-.616m3.562-8.259q.04-.05.077-.102c-.034.182-.058.366-.09.55-.07.409-.134.819-.22 1.225a20 20 0 0 1-.58 2.17 19 19 0 0 1-1.898 4.082c-.615-.17-1.332-.028-1.922.16l-.048.018a25 25 0 0 0 2.566-3.361 18.2 18.2 0 0 0 2.115-4.742m-.584.582c-1.177 2.776-2.964 5.312-5.044 7.47a31 31 0 0 1-2.248 2.099 3 3 0 0 0 .067-.221c.203-.798.018-1.609-.267-2.363-.322-.85-.783-1.656-.955-2.557-.134-.699-.068-1.48.406-2.027 1.009-.158 2.029-.261 3.013-.423 1.214-.198 2.426-.505 3.54-1.039a7 7 0 0 0 1.488-.939m-13.949 5.428a6.8 6.8 0 0 1 1.605-1.556c1.176-.795 2.52-1.165 3.901-1.404a2.55 2.55 0 0 0-.506 1.266c-.099.827.218 1.643.535 2.39.349.822.776 1.678.747 2.594-.012.344-.097.69-.268.99-.174.304-.44.513-.685.757-.064.063-.065.139-.032.197-1.532 1.177-3.155 2.238-4.815 3.231.156-.458.246-.939.259-1.421.049-1.895-.805-3.677-.863-5.561a6.3 6.3 0 0 1 .122-1.483m-6.031 12.144-.613.186q.145-.105.277-.21c.846-.673 1.53-1.548 2.088-2.469 1.148-1.896 1.705-4.027 2.464-6.088.343-.933.744-1.877 1.261-2.741-.229 2.412 1.357 5.127.463 7.507-.096.255-.218.48-.357.687l-.013.008a104 104 0 0 1-3.039 1.681c-.851.455-1.723.902-2.531 1.439m43.528-7.582c-.038-.03-.078-.023-.114-.004-1.603-1.234-3.63-2.181-5.646-1.898-.514-.012-1.028-.021-1.54-.089a8.5 8.5 0 0 1-1.809-.444q-.047-.017-.097-.031v-.039l.099-.036c.161-.061.18-.229.118-.363a.4.4 0 0 0-.041-.138.3.3 0 0 0 .098-.275q.063-.072.139-.133c.391-.308.89-.47 1.319-.716a9.4 9.4 0 0 0 2.2-1.755 10 10 0 0 0 2.223-3.839c.316 1.641.824 3.228 1.614 4.738a18 18 0 0 0 1.228 2.005c.054.254.113.508.186.758a18 18 0 0 0 1.343 3.318c-.426-.367-.87-.717-1.32-1.059m.6 12.94c.405-.206.803-.427 1.177-.685.929-.637 1.771-1.451 2.31-2.451.615-1.138.744-2.374.533-3.569l.113.118a.14.14 0 0 0 .031.16c.61.662.829 1.637.713 2.516-.119.895-.622 1.687-1.279 2.288-.709.649-1.589 1.08-2.504 1.357-.36.11-.726.192-1.094.266m3.185-.625c1.298-.855 2.296-2.222 2.221-3.835a3.2 3.2 0 0 0-.248-1.111q.1.087.2.17a.17.17 0 0 0-.048.214c.189.379.428.72.53 1.138.104.424.108.872.023 1.299-.184.932-.783 1.707-1.562 2.232-1.199.806-2.541.979-3.91.999.131-.03.263-.057.393-.091.842-.219 1.671-.535 2.401-1.015m3.688-2.334a3.5 3.5 0 0 1-.833 2.253c-1.288 1.497-3.358 1.866-5.237 1.712a14 14 0 0 1-1.145-.148c1.359.096 2.747-.002 3.999-.518 1.468-.604 2.662-1.873 2.754-3.512.029-.511-.052-1.138-.313-1.632.114.085.225.174.341.254.085.15.169.301.233.462a3 3 0 0 1 .201 1.129m4.538-.3a24 24 0 0 1-2.422-.813q-.58-.336-1.139-.71c-2.833-1.908-5.124-4.54-6.691-7.572a22 22 0 0 1-1.073-2.443c.043.052.091.099.134.15 1.217 2.676 3.202 5.054 5.457 6.851 1.586 1.265 3.36 2.236 5.254 2.956 2.1.798 4.262 1.477 6.027 2.922q.683.559 1.282 1.208c-2.058-1.365-4.487-1.88-6.829-2.549m8.806 4.003a12.4 12.4 0 0 0-1.96-2.328 12.2 12.2 0 0 0-2.458-1.769c-1-.547-2.077-.937-3.148-1.316-1.063-.375-2.132-.74-3.152-1.223a18.6 18.6 0 0 1-2.574-1.487 19.4 19.4 0 0 1-4.355-4.15 19 19 0 0 1-1.357-2.044c.297.296.598.587.915.86a18 18 0 0 0 2.13 1.583c-.023.015-.036.043-.017.071.197.289.359.592.591.859.239.276.506.529.78.772.541.482 1.125.909 1.732 1.303 1.231.796 2.55 1.447 3.873 2.074 2.671 1.268 5.431 2.516 7.533 4.66a9.6 9.6 0 0 1 1.44 1.852c.206.35.372.721.528 1.096a16 16 0 0 0-.501-.813"/></svg>